<svg width="27" height="24" viewBox="0 0 27 24" fill="none" xmlns="http://www.w3.org/2000/svg">
<path d="M13.9497 23.1406L13.9499 23.1404C15.033 22.1823 16.0761 21.2829 16.9938 20.492C16.9938 20.4919 16.9939 20.4919 16.9939 20.4919L16.9942 20.4916C19.6942 18.1639 21.9662 16.2025 23.5385 14.2832L23.5386 14.2831C25.2747 12.1641 26.0417 10.2112 26.0417 8.10709C26.0417 6.03028 25.3384 4.14018 24.0895 2.76972C22.8281 1.38582 21.1018 0.625 19.2173 0.625C17.8211 0.625 16.5463 1.06837 15.4126 1.95535L15.4126 1.95538C14.8997 2.35657 14.4256 2.8411 13.997 3.40533C13.6639 3.84382 13.0027 3.84371 12.6697 3.40525L13.1674 3.02722L12.6697 3.40525C12.2412 2.84113 11.767 2.3566 11.2543 1.95535L13.9497 23.1406ZM13.9497 23.1406C13.7785 23.2921 13.5595 23.375 13.3333 23.375C13.1071 23.375 12.8883 23.2922 12.7169 23.1403L12.7165 23.14M13.9497 23.1406L12.7165 23.14M12.7165 23.14C11.6368 22.1849 10.5962 21.2877 9.68075 20.4986L9.67832 20.4964L9.67834 20.4964M12.7165 23.14L9.67834 20.4964M9.67834 20.4964L9.67363 20.4923M9.67834 20.4964L9.67363 20.4923M9.67363 20.4923C6.97308 18.1643 4.70068 16.2025 3.12832 14.2834C1.39212 12.164 0.625 10.2111 0.625 8.10709C0.625 6.03031 1.32844 4.14021 2.5774 2.76972M9.67363 20.4923L11.2542 1.95532C10.1205 1.06836 8.84571 0.625 7.44954 0.625C5.56486 0.625 3.83873 1.38581 2.5774 2.76972M2.5774 2.76972L2.11548 2.34871L2.5774 2.76972Z" stroke="#F7F7F7" stroke-width="1.25" stroke-linecap="round"/>
</svg>
